<?xml version="1.0" encoding="UTF-8"?>
<!DOCTYPE svg PUBLIC "-//W3C//DTD SVG 1.1//EN" "http://www.w3.org/Graphics/SVG/1.1/DTD/svg11.dtd">
<!-- Creator: CorelDRAW -->
<svg xmlns="http://www.w3.org/2000/svg" xml:space="preserve" width="33.0728mm" height="33.0728mm" version="1.1" style="shape-rendering:geometricPrecision; text-rendering:geometricPrecision; image-rendering:optimizeQuality; fill-rule:evenodd; clip-rule:evenodd"
viewBox="0 0 3307.28 3307.28"
 xmlns:xlink="http://www.w3.org/1999/xlink"
 xmlns:xodm="http://www.corel.com/coreldraw/odm/2003">
 <defs>
  <style type="text/css">
   <![CDATA[
    .fil0 {fill:#09521A;fill-rule:nonzero}
    .fil7 {fill:#0D1E15;fill-rule:nonzero}
    .fil5 {fill:#213228;fill-rule:nonzero}
    .fil1 {fill:#E3E4E5;fill-rule:nonzero}
    .fil8 {fill:#EE3B3F;fill-rule:nonzero}
    .fil4 {fill:#EEEFEF;fill-rule:nonzero}
    .fil6 {fill:#F7E0B7;fill-rule:nonzero}
    .fil3 {fill:#F7F8F8;fill-rule:nonzero}
    .fil2 {fill:white;fill-rule:nonzero}
   ]]>
  </style>
 </defs>
 <g id="Camada_x0020_1">
  <metadata id="CorelCorpID_0Corel-Layer"/>
  <circle class="fil0" transform="matrix(0.587363 -0.0633327 0.0633327 0.587363 1640.42 1834.57)" r="2409.43"/>
  <path class="fil1" d="M1778.17 2145c0,280.95 -227.76,508.71 -508.72,508.71 -280.95,0 -508.71,-227.76 -508.71,-508.71 0,-280.95 227.76,-508.73 508.71,-508.73 280.95,0 508.72,227.78 508.72,508.73z"/>
  <path class="fil2" d="M934.89 2036.18c-3.42,-1.05 -6.3,-4.8 -6.47,-8.35l-8.18 -184.24c-0.15,-3.55 2.08,-8.14 4.94,-10.24l154.3 -112.09c2.89,-2.11 7.94,-2.78 11.25,-1.53l172.73 64.71c3.29,1.26 6.02,5.18 6.02,8.7l0 148.79c0,3.53 -2.35,8.14 -5.21,10.22l-174.35 126.68c-2.86,2.1 -7.97,2.94 -11.37,1.89l-143.66 -44.54z"/>
  <path class="fil3" d="M1672.87 2376.13c-1.11,3.36 -4.81,6.91 -8.2,7.87l-177.78 49.16c-3.41,0.95 -7.88,-0.66 -9.95,-3.54l-88.92 -124.53c-2.07,-2.89 -2.84,-8.02 -1.76,-11.38l66.6 -204.96c1.08,-3.37 4.74,-6.98 8.14,-8.03l143.69 -44.53c3.36,-1.05 7.94,0.37 10.16,3.15l114.91 144.23c2.23,2.77 3.11,7.82 2.02,11.19l-58.91 181.37z"/>
  <path class="fil4" d="M1460.38 2080.71c-3.39,1.05 -8.5,0.2 -11.37,-1.89l-174.31 -126.67c-2.88,-2.08 -5.24,-6.69 -5.24,-10.22l0 -148.8c0,-3.52 2.72,-7.44 6.05,-8.69l172.7 -64.72c3.33,-1.25 8.39,-0.58 11.25,1.53l154.3 112.09c2.89,2.1 5.11,6.69 4.92,10.24l-8.18 184.25c-0.17,3.55 -3.04,7.3 -6.44,8.34l-143.68 44.54z"/>
  <path class="fil4" d="M1062.61 2429.62c-2.06,2.88 -6.53,4.49 -9.97,3.54l-177.76 -49.16c-3.39,-0.96 -7.09,-4.51 -8.19,-7.87l-58.94 -181.35c-1.09,-3.38 -0.19,-8.43 2.02,-11.19l114.92 -144.23c2.22,-2.78 6.78,-4.21 10.19,-3.16l143.64 44.54c3.39,1.04 7.04,4.65 8.14,8.03l66.58 204.96c1.1,3.36 0.3,8.49 -1.74,11.38l-88.89 124.51z"/>
  <path class="fil2" d="M1476.29 2429.62c2.05,2.88 2.14,7.66 0.19,10.62l-101.67 153.88c-1.95,2.95 -6.44,5.37 -9.99,5.37l-190.73 0c-3.53,0 -8.05,-2.43 -9.99,-5.38l-101.68 -153.88c-1.95,-2.95 -1.86,-7.75 0.2,-10.61l88.9 -124.54c2.05,-2.88 6.64,-5.25 10.19,-5.25l215.49 0c3.56,0 8.12,2.37 10.19,5.25l88.9 124.54z"/>
  <path class="fil5" d="M920.24 1843.59c-0.15,-3.55 -3.02,-5.54 -6.41,-4.43l-60.36 19.84c-3.38,1.1 -7.43,4.6 -8.99,7.77l-82.24 253.57c-0.64,3.49 0.53,8.69 2.61,11.55l37.13 51.48c2.1,2.89 5.59,2.95 7.8,0.19l114.92 -144.23c2.22,-2.78 3.89,-7.96 3.72,-11.5l-8.18 -184.24zm527.93 -123.85c3.32,-1.25 4.33,-4.6 2.22,-7.45l-37.59 -51.41c-2.11,-2.85 -6.63,-5.81 -10.09,-6.56 0,0 -84.85,-18.05 -133.26,-18.05 -48.4,0 -133.26,18.05 -133.26,18.05 -3.46,0.75 -8.01,3.69 -10.09,6.56l-37.59 51.41c-2.1,2.85 -1.09,6.2 2.22,7.45l172.73 64.72c3.29,1.25 8.73,1.25 12.07,0l172.64 -64.72zm-70.97 580.09c3.56,0 7.34,-2.76 8.45,-6.12l66.59 -204.96c1.08,-3.38 -0.36,-7.84 -3.25,-9.91l-174.31 -126.68c-2.89,-2.08 -7.58,-2.08 -10.44,0l-174.35 126.68c-2.86,2.1 -4.31,6.54 -3.22,9.91l66.59 204.96c1.09,3.36 4.89,6.12 8.44,6.12l215.5 0zm317.21 -433.05c-1.57,-3.17 -5.58,-6.67 -8.97,-7.77l-60.36 -19.83c-3.36,-1.12 -6.23,0.87 -6.42,4.42l-8.17 184.24c-0.17,3.55 1.51,8.72 3.72,11.51l114.92 144.23c2.22,2.76 5.69,2.68 7.77,-0.19l37.15 -51.46c2.1,-2.88 3.25,-8.08 2.61,-11.55l-82.25 -253.6zm-319.61 727.31c-1.95,2.96 -0.78,6.25 2.6,7.35l60.62 19.49c3.39,1.1 8.69,0.61 11.81,-1.09l215.49 -156.72c2.55,-2.47 4.66,-7.38 4.66,-10.91l0.2 -63.51c0.03,-3.55 -2.75,-5.67 -6.17,-4.72l-177.76 49.16c-3.44,0.95 -7.83,4.13 -9.78,7.08l-101.67 153.87zm-499.92 -210.11c-3.39,-0.95 -6.19,1.17 -6.17,4.72l0.2 63.51c0,3.53 2.1,8.44 4.64,10.91l215.49 156.72c3.12,1.69 8.46,2.19 11.82,1.09l60.63 -19.49c3.39,-1.09 4.53,-4.39 2.6,-7.35l-101.69 -153.87c-1.95,-2.96 -6.34,-6.15 -9.77,-7.09l-177.75 -49.15z"/>
  <polygon class="fil4" points="2617.57,1658.7 1902.09,591.1 1377.76,1010.17 2264.33,1945.77 "/>
  <polygon class="fil6" points="1824.67,479.83 1522.67,75.61 949.29,519.66 1297.18,915.56 "/>
  <path class="fil7" d="M2861.51 1985.28c-2.01,-1.86 -4.17,-3.36 -6.34,-4.98 3.09,-2.99 5.88,-5.69 8.14,-7.97 79.25,-79.19 -127.36,-348.21 -239.46,-328.1 -60.24,43.18 -373.15,295.63 -373.15,295.63 0,0 -182.98,341.39 -254.32,489.44 -71.31,148.06 73.33,260.65 135.22,201.5 15.83,-15.13 20.75,-17.98 52.82,-46.54 24.71,22.03 60.15,23.12 80.08,1.99 18.06,-19.14 17.21,-49.87 -0.4,-72.86 13.44,-11.97 27.37,-24.4 41.72,-37.17 24.15,17.23 55.66,16.68 74.03,-2.78 16.43,-17.46 17.04,-44.46 3.67,-66.53 84.69,-75.58 175.86,-157.16 256.28,-229.6 1.51,1.68 2.84,3.41 4.48,4.99 24.74,23.34 61.26,24.74 81.63,3.2 19.94,-21.16 16.79,-56.51 -6.71,-79.86 21.36,-19.38 41.18,-37.4 59.04,-53.74 2.74,4.07 5.86,7.96 9.58,11.5 24.76,23.34 61.26,24.78 81.63,3.21 20.37,-21.62 16.82,-57.97 -7.94,-81.33z"/>
  <path class="fil8" d="M2030.27 2336.93c-7.45,-3.27 -13.21,-10.04 -14.79,-18.64 -2.49,-13.72 6.59,-26.88 20.29,-29.41 37.19,-6.77 107,30.9 127.52,42.64 12.12,6.91 16.34,22.36 9.4,34.47 -6.88,12.12 -22.39,16.24 -34.47,9.39 -37.39,-21.34 -81.92,-38.86 -93.32,-36.78 -5.11,0.94 -10.17,0.25 -14.63,-1.67z"/>
  <path class="fil8" d="M2070.16 2245.12c-4.86,-2.12 -9.07,-5.76 -11.89,-10.69 -6.85,-12.13 -2.58,-27.57 9.54,-34.44 55.08,-31.21 134.5,19.85 143.4,25.78 11.58,7.75 14.71,23.46 6.97,35.03 -7.75,11.63 -23.37,14.76 -35.03,7 -19.93,-13.26 -68.25,-36.43 -90.41,-23.87 -7.2,4.08 -15.51,4.24 -22.58,1.19z"/>
  <path class="fil8" d="M2120.65 2148.91c-4.88,-2.1 -9.08,-5.75 -11.89,-10.67 -6.88,-12.15 -2.61,-27.57 9.5,-34.44 55.09,-31.24 134.5,19.87 143.38,25.78 11.61,7.75 14.74,23.43 7,35.06 -7.75,11.57 -23.37,14.77 -35.03,6.97 -19.93,-13.24 -68.21,-36.43 -90.41,-23.87 -7.18,4.08 -15.5,4.24 -22.55,1.17z"/>
  <path class="fil8" d="M2163.87 2049.56c-4.85,-2.13 -9.05,-5.75 -11.88,-10.7 -6.9,-12.12 -2.63,-27.53 9.51,-34.44 55.07,-31.23 134.5,19.89 143.38,25.78 11.61,7.76 14.74,23.44 6.99,35.06 -7.74,11.6 -23.34,14.72 -35.02,6.99l0 0c-19.9,-13.22 -68.23,-36.45 -90.43,-23.86 -7.17,4.05 -15.52,4.25 -22.55,1.17z"/>
  <polygon class="fil8" points="1902.09,591.1 1377.76,1010.17 1293.22,910.9 1822.59,477.05 "/>
 </g>
</svg>
